<svg aria-hidden="true" style="position: absolute; width: 0; height: 0; overflow: hidden;" version="1.1" xmlns="http://www.w3.org/2000/svg" xmlns:xlink="http://www.w3.org/1999/xlink">
<defs>
<symbol id="icon-cross" viewBox="0 0 32 32">
<path d="M32 3.223l-3.223-3.223-12.777 12.777-12.777-12.777-3.223 3.223 12.777 12.777-12.777 12.777 3.223 3.223 12.777-12.777 12.777 12.777 3.223-3.223-12.777-12.777 12.777-12.777z"></path>
</symbol>
<symbol id="icon-mail" viewBox="0 0 43 32">
<path d="M37.342 0.006h-32.008c-2.201 0-3.982 1.8-3.982 4.001l-0.019 24.006c0 2.201 1.8 4.001 4.001 4.001h32.008c2.201 0 4.001-1.8 4.001-4.001v-24.006c0-2.201-1.8-4.001-4.001-4.001zM36.542 8.51l-14.142 8.84c-0.302 0.188-0.668 0.3-1.060 0.3s-0.759-0.112-1.069-0.305l0.009 0.005-14.145-8.842c-0.504-0.301-0.836-0.843-0.836-1.463 0-0.938 0.761-1.699 1.699-1.699 0.349 0 0.673 0.105 0.943 0.286l-0.006-0.004 13.403 8.383 13.403-8.383c0.264-0.176 0.588-0.282 0.937-0.282 0.938 0 1.699 0.761 1.699 1.699 0 0.62-0.332 1.162-0.828 1.459l-0.008 0.004z"></path>
</symbol>
<symbol id="icon-name" viewBox="0 0 32 32">
<path d="M16 16c4.42 0 8-3.58 8-8s-3.58-8-8-8c-4.42 0-8 3.58-8 8s3.58 8 8 8zM16 20c-5.34 0-16 2.68-16 8v2c0 1.1 0.9 2 2 2h28c1.1 0 2-0.9 2-2v-2c0-5.32-10.66-8-16-8z"></path>
</symbol>
<symbol id="icon-phone" viewBox="0 0 32 32">
<path d="M27.45 20.876l-4.206-0.481c-0.116-0.014-0.25-0.023-0.386-0.023-0.91 0-1.734 0.369-2.33 0.965l-3.048 3.048c-4.723-2.438-8.476-6.192-10.847-10.776l-0.065-0.139 3.066-3.059c0.598-0.597 0.967-1.421 0.967-2.332 0-0.135-0.008-0.269-0.024-0.4l0.002 0.016-0.481-4.174c-0.199-1.657-1.597-2.929-3.291-2.929-0.001 0-0.003 0-0.004 0h-2.867c-1.872-0.002-3.428 1.554-3.313 3.426 0.879 14.142 12.187 25.434 26.315 26.313 1.869 0.114 3.428-1.442 3.428-3.313v-2.865c0-0.005 0-0.010 0-0.016 0-1.683-1.267-3.071-2.9-3.259l-0.015-0.001z"></path>
</symbol>
</defs>
</svg>
